<?xml version="1.0" encoding="UTF-8"?>
<!DOCTYPE svg PUBLIC "-//W3C//DTD SVG 1.1//EN" "http://www.w3.org/Graphics/SVG/1.1/DTD/svg11.dtd">
<svg xmlns="http://www.w3.org/2000/svg" version="1.1" width="1024px" height="1024px" style="shape-rendering:geometricPrecision; text-rendering:geometricPrecision; image-rendering:optimizeQuality; fill-rule:evenodd; clip-rule:evenodd" xmlns:xlink="http://www.w3.org/1999/xlink">
<g><path style="opacity:0.004" fill="#2b302e" d="M 635.5,45.5 C 636.833,46.1667 636.833,46.1667 635.5,45.5 Z"/></g>
<g><path style="opacity:0.004" fill="#e96b63" d="M 338.5,311.5 C 339.833,312.167 339.833,312.167 338.5,311.5 Z"/></g>
<g><path style="opacity:0.004" fill="#2fc9b6" d="M 670.5,312.5 C 669.833,311.167 669.833,311.167 670.5,312.5 Z"/></g>
<g><path style="opacity:0.008" fill="#eb6b64" d="M 338.5,312.5 C 337.833,313.167 337.833,313.167 338.5,312.5 Z"/></g>
<g><path style="opacity:0.996" fill="#fe685f" d="M 412.5,315.5 C 418.237,316.968 423.903,318.635 429.5,320.5C 430.514,321.674 431.847,322.34 433.5,322.5C 438.686,325.347 443.852,328.347 449,331.5C 449.333,331.167 449.667,330.833 450,330.5C 452.129,333.457 454.962,335.457 458.5,336.5C 463.943,341.395 469.61,346.062 475.5,350.5C 482.543,358.208 489.21,366.208 495.5,374.5C 495.611,375.117 495.944,375.617 496.5,376C 482.994,389.84 469.827,404.006 457,418.5C 451.129,428.072 451.129,437.738 457,447.5C 475.519,473.892 494.019,500.225 512.5,526.5C 510.75,530.335 508.75,534.001 506.5,537.5C 506.631,536.761 506.464,536.094 506,535.5C 488.302,564.901 468.635,592.901 447,619.5C 446.308,620.437 446.475,621.103 447.5,621.5C 442.843,627.489 437.843,633.156 432.5,638.5C 431.703,637.522 431.036,637.855 430.5,639.5C 459.691,662.318 492.024,667.818 527.5,656C 542.921,649.92 556.087,641.087 567,629.5C 566.329,630.252 565.496,630.586 564.5,630.5C 569.562,625.443 574.228,620.11 578.5,614.5C 594.89,634.727 611.89,654.561 629.5,674C 630.448,674.483 631.448,674.649 632.5,674.5C 629.789,678.212 626.456,681.212 622.5,683.5C 622.103,682.475 621.437,682.308 620.5,683C 571.987,724.544 516.32,739.711 453.5,728.5C 450.762,728.149 448.096,727.482 445.5,726.5C 444.199,727.478 443.032,727.145 442,725.5C 438.979,723.993 435.812,722.993 432.5,722.5C 422.458,718.036 412.458,713.369 402.5,708.5C 399.672,706.252 396.672,704.252 393.5,702.5C 342.198,666.018 298.031,621.018 261,567.5C 248.66,548.151 238.994,527.484 232,505.5C 216.14,436.397 235.974,380.23 291.5,337C 328.141,312.931 367.808,306.097 410.5,316.5C 411.416,316.457 412.083,316.124 412.5,315.5 Z M 404.5,405.5 C 406.969,406.569 409.302,407.902 411.5,409.5C 423.338,417.828 431.005,428.161 434.5,440.5C 436.074,442.102 436.741,444.102 436.5,446.5C 440.404,459.488 439.904,472.488 435,485.5C 432.978,490.223 430.478,494.557 427.5,498.5C 423.067,506.101 417.067,512.267 409.5,517C 406.929,518.454 404.262,519.62 401.5,520.5C 397.478,522.734 393.144,524.401 388.5,525.5C 386.901,525.232 385.568,525.566 384.5,526.5C 356.172,528.752 334.339,518.085 319,494.5C 316.265,489.033 314.098,483.367 312.5,477.5C 312.737,476.209 312.404,475.209 311.5,474.5C 307.982,445.341 318.315,422.674 342.5,406.5C 353.061,400.405 364.228,397.405 376,397.5C 386.327,397.62 395.827,400.287 404.5,405.5 Z"/></g>
<g><path style="opacity:0.004" fill="#3bc6b5" d="M 562.5,312.5 C 563.833,313.167 563.833,313.167 562.5,312.5 Z"/></g>
<g><path style="opacity:0.004" fill="#34ccb8" d="M 581.5,313.5 C 580.833,312.167 580.833,312.167 581.5,313.5 Z"/></g>
<g><path style="opacity:0.004" fill="#33cbba" d="M 585.5,313.5 C 585.897,312.475 586.563,312.308 587.5,313C 586.906,313.464 586.239,313.631 585.5,313.5 Z"/></g>
<g><path style="opacity:0.008" fill="#33ccbb" d="M 588.5,312.5 C 589.833,313.167 589.833,313.167 588.5,312.5 Z"/></g>
<g><path style="opacity:0.004" fill="#32cdbb" d="M 590.5,312.5 C 591.833,313.167 591.833,313.167 590.5,312.5 Z"/></g>
<g><path style="opacity:0.008" fill="#30ccb7" d="M 596.5,312.5 C 597.833,313.167 597.833,313.167 596.5,312.5 Z"/></g>
<g><path style="opacity:0.008" fill="#2eccb7" d="M 604.5,312.5 C 605.833,313.167 605.833,313.167 604.5,312.5 Z"/></g>
<g><path style="opacity:0.004" fill="#30cdb8" d="M 609.5,312.5 C 610.833,313.167 610.833,313.167 609.5,312.5 Z"/></g>
<g><path style="opacity:0.004" fill="#2ecbb7" d="M 617.5,312.5 C 618.833,313.167 618.833,313.167 617.5,312.5 Z"/></g>
<g><path style="opacity:0.004" fill="#2fccb8" d="M 620.5,312.5 C 621.833,313.167 621.833,313.167 620.5,312.5 Z"/></g>
<g><path style="opacity:0.004" fill="#31ccb9" d="M 628.5,312.5 C 629.833,313.167 629.833,313.167 628.5,312.5 Z"/></g>
<g><path style="opacity:0.004" fill="#2dccb9" d="M 641.5,312.5 C 642.833,313.167 642.833,313.167 641.5,312.5 Z"/></g>
<g><path style="opacity:0.004" fill="#2ecdba" d="M 644.5,312.5 C 645.833,313.167 645.833,313.167 644.5,312.5 Z"/></g>
<g><path style="opacity:0.004" fill="#2ecbba" d="M 665.5,312.5 C 666.833,313.167 666.833,313.167 665.5,312.5 Z"/></g>
<g><path style="opacity:0.008" fill="#30ccb9" d="M 669.5,312.5 C 668.833,313.167 668.833,313.167 669.5,312.5 Z"/></g>
<g><path style="opacity:0.008" fill="#2ecbb8" d="M 670.5,312.5 C 671.833,313.167 671.833,313.167 670.5,312.5 Z"/></g>
<g><path style="opacity:0.004" fill="#2eccba" d="M 675.5,313.5 C 675.897,312.475 676.563,312.308 677.5,313C 676.906,313.464 676.239,313.631 675.5,313.5 Z"/></g>
<g><path style="opacity:0.012" fill="#2ecab8" d="M 678.5,312.5 C 679.833,313.167 679.833,313.167 678.5,312.5 Z"/></g>
<g><path style="opacity:0.01" fill="#2eccba" d="M 681.5,313.5 C 681.897,312.475 682.563,312.308 683.5,313C 682.906,313.464 682.239,313.631 681.5,313.5 Z"/></g>
<g><path style="opacity:0.008" fill="#2eccb9" d="M 684.5,312.5 C 685.833,313.167 685.833,313.167 684.5,312.5 Z"/></g>
<g><path style="opacity:0.008" fill="#2bccb9" d="M 689.5,312.5 C 690.833,313.167 690.833,313.167 689.5,312.5 Z"/></g>
<g><path style="opacity:0.004" fill="#2ecab6" d="M 692.5,312.5 C 693.833,313.167 693.833,313.167 692.5,312.5 Z"/></g>
<g><path style="opacity:0.004" fill="#2cc9b5" d="M 695.5,313.5 C 694.833,312.167 694.833,312.167 695.5,313.5 Z"/></g>
<g><path style="opacity:0.008" fill="#2ec9b5" d="M 700.5,312.5 C 701.833,313.167 701.833,313.167 700.5,312.5 Z"/></g>
<g><path style="opacity:0.97" fill="#16b4a2" d="M 581.5,313.5 C 617.549,314.705 653.549,314.705 689.5,313.5C 691.5,314.833 693.5,314.833 695.5,313.5C 701.965,313.883 708.298,315.05 714.5,317C 719.622,320.29 724.289,324.123 728.5,328.5C 736.522,337.52 744.522,346.52 752.5,355.5C 741.059,344.13 729.726,332.63 718.5,321C 715.205,318.566 711.538,316.899 707.5,316C 658.833,315.333 610.167,315.333 561.5,316C 554.684,318.237 548.684,321.737 543.5,326.5C 543.369,325.761 543.536,325.094 544,324.5C 547.023,322.302 549.856,319.969 552.5,317.5C 560.294,314.822 568.128,313.822 576,314.5C 576.667,313.833 577.333,313.167 578,312.5C 578.924,314.495 580.09,314.828 581.5,313.5 Z"/></g>
<g><path style="opacity:0.004" fill="#ea7067" d="M 419.5,315.5 C 420.833,316.167 420.833,316.167 419.5,315.5 Z"/></g>
<g><path style="opacity:0.004" fill="#e97066" d="M 422.5,316.5 C 423.833,317.167 423.833,317.167 422.5,316.5 Z"/></g>
<g><path style="opacity:0.004" fill="#3ec4b0" d="M 552.5,317.5 C 551.833,316.167 551.833,316.167 552.5,317.5 Z"/></g>
<g><path style="opacity:0.998" fill="#21d1bf" d="M 752.5,355.5 C 772.501,376.002 792.001,397.002 811,418.5C 816.341,427.578 816.841,436.912 812.5,446.5C 809.687,449.446 807.354,452.779 805.5,456.5C 800.018,463.449 795.018,470.783 790.5,478.5C 783.675,487.479 777.341,496.812 771.5,506.5C 760.687,520.779 750.354,535.445 740.5,550.5C 713.753,586.602 685.086,621.268 654.5,654.5C 653.833,654.5 653.5,654.833 653.5,655.5C 652.833,655.5 652.5,655.833 652.5,656.5C 649.167,659.167 646.167,662.167 643.5,665.5C 642.167,666.167 641.167,667.167 640.5,668.5C 639.833,668.5 639.5,668.833 639.5,669.5C 637.445,671.555 635.112,673.221 632.5,674.5C 631.448,674.649 630.448,674.483 629.5,674C 611.89,654.561 594.89,634.727 578.5,614.5C 556.781,586.412 534.781,557.078 512.5,526.5C 494.019,500.225 475.519,473.892 457,447.5C 451.129,437.738 451.129,428.072 457,418.5C 469.827,404.006 482.994,389.84 496.5,376C 495.944,375.617 495.611,375.117 495.5,374.5C 505.457,365.541 514.79,355.875 523.5,345.5C 530.193,339.139 536.86,332.806 543.5,326.5C 548.684,321.737 554.684,318.237 561.5,316C 610.167,315.333 658.833,315.333 707.5,316C 711.538,316.899 715.205,318.566 718.5,321C 729.726,332.63 741.059,344.13 752.5,355.5 Z M 588.5,422.5 C 592.926,405.897 597.926,389.564 603.5,373.5C 603.595,371.214 604.262,369.214 605.5,367.5C 605.435,364.529 606.269,361.862 608,359.5C 625.476,360.357 642.81,360.357 660,359.5C 666.992,380.312 673.492,401.312 679.5,422.5C 648.988,422.527 618.655,422.527 588.5,422.5 Z M 563.5,369.5 C 563.125,371.698 562.458,373.698 561.5,375.5C 561.737,374.209 561.404,373.209 560.5,372.5C 561.167,371.167 562.167,370.167 563.5,369.5 Z M 705.5,369.5 C 709.745,373.241 713.911,377.241 718,381.5C 727.001,392.665 736.168,403.665 745.5,414.5C 748.165,416.64 750.498,419.14 752.5,422C 742.151,422.832 731.817,422.666 721.5,421.5C 716.448,405.878 711.781,390.544 707.5,375.5C 708.833,374.5 708.833,373.5 707.5,372.5C 706.449,371.778 705.782,370.778 705.5,369.5 Z M 558.5,374.5 C 558.833,375.833 559.167,375.833 559.5,374.5C 560.167,374.833 560.833,375.167 561.5,375.5C 560.204,381.05 558.537,386.383 556.5,391.5C 553.912,401.6 550.912,411.6 547.5,421.5C 536.181,422.666 524.848,422.832 513.5,422C 514.044,421.283 514.711,420.783 515.5,420.5C 529.861,405.141 544.195,389.807 558.5,374.5 Z M 556.5,475.5 C 557.404,476.209 557.737,477.209 557.5,478.5C 563.072,493.887 568.072,509.554 572.5,525.5C 575.415,531.491 577.249,537.824 578,544.5C 576.824,542.804 575.657,541.138 574.5,539.5C 571.601,536.048 568.934,532.382 566.5,528.5C 563.601,525.048 560.934,521.382 558.5,517.5C 545.522,499.567 532.522,481.567 519.5,463.5C 530.151,462.334 540.818,462.168 551.5,463C 552.667,463.5 553.5,464.333 554,465.5C 555.143,468.777 555.977,472.11 556.5,475.5 Z M 656.5,512.5 C 649.647,535.895 642.48,559.228 635,582.5C 634.586,582.957 634.086,583.291 633.5,583.5C 620.208,543.312 607.708,502.978 596,462.5C 621.3,462.188 646.8,462.521 672.5,463.5C 667.134,479.931 661.8,496.264 656.5,512.5 Z M 720.5,504.5 C 716.644,510.891 712.311,516.891 707.5,522.5C 703.278,529.495 698.278,536.495 692.5,543.5C 691.52,546.116 690.02,548.449 688,550.5C 696.565,521.466 705.565,492.466 715,463.5C 726.438,462.18 737.938,462.18 749.5,463.5C 740.165,477.486 730.498,491.152 720.5,504.5 Z"/></g>
<g><path style="opacity:0.004" fill="#e86863" d="M 315.5,319.5 C 316.833,320.167 316.833,320.167 315.5,319.5 Z"/></g>
<g><path style="opacity:0.008" fill="#e96d65" d="M 429.5,320.5 C 429.897,319.475 430.563,319.308 431.5,320C 430.906,320.464 430.239,320.631 429.5,320.5 Z"/></g>
<g><path style="opacity:0.004" fill="#eb6963" d="M 313.5,320.5 C 314.833,321.167 314.833,321.167 313.5,320.5 Z"/></g>
<g><path style="opacity:0.004" fill="#e97168" d="M 433.5,321.5 C 434.833,322.167 434.833,322.167 433.5,321.5 Z"/></g>
<g><path style="opacity:0.004" fill="#ea6f65" d="M 438.5,323.5 C 439.833,324.167 439.833,324.167 438.5,323.5 Z"/></g>
<g><path style="opacity:0.008" fill="#2cc6b7" d="M 728.5,327.5 C 729.833,328.167 729.833,328.167 728.5,327.5 Z"/></g>
<g><path style="opacity:0.004" fill="#e96963" d="M 297.5,330.5 C 296.833,329.167 296.833,329.167 297.5,330.5 Z"/></g>
<g><path style="opacity:0.004" fill="#ea6a66" d="M 288.5,336.5 C 287.833,335.167 287.833,335.167 288.5,336.5 Z"/></g>
<g><path style="opacity:0.004" fill="#df786d" d="M 458.5,335.5 C 459.833,336.167 459.833,336.167 458.5,335.5 Z"/></g>
<g><path style="opacity:0.004" fill="#ea6c64" d="M 284.5,339.5 C 283.833,338.167 283.833,338.167 284.5,339.5 Z"/></g>
<g><path style="opacity:0.008" fill="#50c4b1" d="M 523.5,345.5 C 522.833,344.167 522.833,344.167 523.5,345.5 Z"/></g>
<g><path style="opacity:0.008" fill="#55c2b2" d="M 519.5,346.5 C 520.833,347.167 520.833,347.167 519.5,346.5 Z"/></g>
<g><path style="opacity:0.004" fill="#d28376" d="M 475.5,349.5 C 476.833,350.167 476.833,350.167 475.5,349.5 Z"/></g>
<g><path style="opacity:0.004" fill="#d0847a" d="M 477.5,350.5 C 478.833,351.167 478.833,351.167 477.5,350.5 Z"/></g>
<g><path style="opacity:0.004" fill="#e86d64" d="M 267.5,352.5 C 266.833,351.167 266.833,351.167 267.5,352.5 Z"/></g>
<g><path style="opacity:0.008" fill="#e86a62" d="M 267.5,352.5 C 268.833,353.167 268.833,353.167 267.5,352.5 Z"/></g>
<g><path style="opacity:0.004" fill="#2ad6c4" d="M 560.5,372.5 C 561.404,373.209 561.737,374.209 561.5,375.5C 560.833,375.167 560.167,374.833 559.5,374.5C 559.5,374.167 559.5,373.833 559.5,373.5C 560.167,373.5 560.5,373.167 560.5,372.5 Z"/></g>
<g><path style="opacity:0.004" fill="#ee7069" d="M 240.5,393.5 C 239.833,392.167 239.833,392.167 240.5,393.5 Z"/></g>
<g><path style="opacity:0.004" fill="#ea6963" d="M 232.5,404.5 C 233.833,405.167 233.833,405.167 232.5,404.5 Z"/></g>
<g><path style="opacity:0.882" fill="#fd5344" d="M 342.5,406.5 C 318.315,422.674 307.982,445.341 311.5,474.5C 305.71,446.246 315.71,423.246 341.5,405.5C 342.107,405.624 342.44,405.957 342.5,406.5 Z"/></g>
<g><path style="opacity:0.008" fill="#2fc9b6" d="M 812.5,446.5 C 813.833,447.167 813.833,447.167 812.5,446.5 Z"/></g>
<g><path style="opacity:0.004" fill="#2cc6b2" d="M 811.5,448.5 C 812.833,449.167 812.833,449.167 811.5,448.5 Z"/></g>
<g><path style="opacity:0.004" fill="#2bc6b2" d="M 805.5,456.5 C 806.833,457.167 806.833,457.167 805.5,456.5 Z"/></g>
<g><path style="opacity:0.016" fill="#ed6c65" d="M 223.5,476.5 C 224.573,477.251 224.74,478.251 224,479.5C 223.517,478.552 223.351,477.552 223.5,476.5 Z"/></g>
<g><path style="opacity:0.882" fill="#fd5544" d="M 388.5,525.5 C 393.144,524.401 397.478,522.734 401.5,520.5C 404.262,519.62 406.929,518.454 409.5,517C 417.067,512.267 423.067,506.101 427.5,498.5C 430.478,494.557 432.978,490.223 435,485.5C 439.904,472.488 440.404,459.488 436.5,446.5C 436.741,444.102 436.074,442.102 434.5,440.5C 431.005,428.161 423.338,417.828 411.5,409.5C 411.369,408.761 411.536,408.094 412,407.5C 442.253,432.431 448.586,462.431 431,497.5C 421.388,512.305 408.055,521.972 391,526.5C 389.93,526.472 389.097,526.139 388.5,525.5 Z"/></g>
<g><path style="opacity:0.004" fill="#2dc8b6" d="M 790.5,478.5 C 791.833,479.167 791.833,479.167 790.5,478.5 Z"/></g>
<g><path style="opacity:0.008" fill="#ef6a63" d="M 223.5,480.5 C 224.833,481.167 224.833,481.167 223.5,480.5 Z"/></g>
<g><path style="opacity:0.004" fill="#2bcab6" d="M 786.5,485.5 C 787.833,486.167 787.833,486.167 786.5,485.5 Z"/></g>
<g><path style="opacity:0.004" fill="#ef6b62" d="M 224.5,487.5 C 225.833,488.167 225.833,488.167 224.5,487.5 Z"/></g>
<g><path style="opacity:0.004" fill="#ee6963" d="M 226.5,498.5 C 227.833,499.167 227.833,499.167 226.5,498.5 Z"/></g>
<g><path style="opacity:0.839" fill="#fc5646" d="M 312.5,477.5 C 314.098,483.367 316.265,489.033 319,494.5C 334.339,518.085 356.172,528.752 384.5,526.5C 359.618,531.25 338.118,522.25 320,499.5C 316.337,493.175 313.504,486.509 311.5,479.5C 311.543,478.584 311.876,477.917 312.5,477.5 Z"/></g>
<g><path style="opacity:0.008" fill="#f06a63" d="M 227.5,501.5 C 228.525,501.897 228.692,502.563 228,503.5C 227.536,502.906 227.369,502.239 227.5,501.5 Z"/></g>
<g><path style="opacity:0.004" fill="#2cceb7" d="M 771.5,506.5 C 772.833,507.167 772.833,507.167 771.5,506.5 Z"/></g>
<g><path style="opacity:0.004" fill="#f06861" d="M 232.5,514.5 C 232.649,515.552 232.483,516.552 232,517.5C 231.26,516.251 231.427,515.251 232.5,514.5 Z"/></g>
<g><path style="opacity:0.004" fill="#2eccb8" d="M 763.5,518.5 C 764.833,519.167 764.833,519.167 763.5,518.5 Z"/></g>
<g><path style="opacity:0.016" fill="#ec6963" d="M 234.5,523.5 C 235.833,524.167 235.833,524.167 234.5,523.5 Z"/></g>
<g><path style="opacity:0.004" fill="#f06862" d="M 236.5,525.5 C 236.631,526.239 236.464,526.906 236,527.5C 235.308,526.563 235.475,525.897 236.5,525.5 Z"/></g>
<g><path style="opacity:0.004" fill="#2ccab6" d="M 757.5,529.5 C 758.833,530.167 758.833,530.167 757.5,529.5 Z"/></g>
<g><path style="opacity:0.004" fill="#f06963" d="M 241.5,540.5 C 242.833,541.167 242.833,541.167 241.5,540.5 Z"/></g>
<g><path style="opacity:0.004" fill="#e96963" d="M 244.5,542.5 C 243.833,543.167 243.833,543.167 244.5,542.5 Z"/></g>
<g><path style="opacity:0.804" fill="#fa503e" d="M 412.5,315.5 C 412.083,316.124 411.416,316.457 410.5,316.5C 367.808,306.097 328.141,312.931 291.5,337C 235.974,380.23 216.14,436.397 232,505.5C 238.994,527.484 248.66,548.151 261,567.5C 298.031,621.018 342.198,666.018 393.5,702.5C 389.167,699.833 384.833,697.167 380.5,694.5C 380.158,693.662 379.492,693.328 378.5,693.5C 375.81,690.815 372.81,688.482 369.5,686.5C 362.873,681.178 356.206,675.844 349.5,670.5C 345.793,665.792 341.46,661.792 336.5,658.5C 335.5,656.833 334.167,655.5 332.5,654.5C 332.167,653.5 331.5,652.833 330.5,652.5C 325.167,646.5 319.5,640.833 313.5,635.5C 311.833,633.167 309.833,631.167 307.5,629.5C 306.243,626.573 304.243,624.239 301.5,622.5C 299.528,618.895 296.861,615.895 293.5,613.5C 290.848,609.518 287.848,605.851 284.5,602.5C 284.167,601.5 283.5,600.833 282.5,600.5C 276.509,591.205 270.009,582.205 263,573.5C 256.807,563.103 250.641,552.77 244.5,542.5C 242.07,536.643 239.403,530.977 236.5,525.5C 235.935,521.463 234.601,517.797 232.5,514.5C 219.73,473.096 222.396,432.763 240.5,393.5C 251.79,372.864 266.456,354.864 284.5,339.5C 286.404,339.262 287.738,338.262 288.5,336.5C 292.025,335.241 295.025,333.241 297.5,330.5C 317.087,320.018 337.087,313.518 357.5,311C 376.162,309.284 394.495,310.784 412.5,315.5 Z"/></g>
<g><path style="opacity:0.02" fill="#2fcdb9" d="M 740.5,550.5 C 741.833,551.167 741.833,551.167 740.5,550.5 Z"/></g>
<g><path style="opacity:0.008" fill="#ef6a61" d="M 251.5,557.5 C 252.833,558.167 252.833,558.167 251.5,557.5 Z"/></g>
<g><path style="opacity:0.004" fill="#ec6962" d="M 282.5,600.5 C 281.833,601.167 281.833,601.167 282.5,600.5 Z"/></g>
<g><path style="opacity:0.012" fill="#eb6b65" d="M 284.5,602.5 C 283.833,603.167 283.833,603.167 284.5,602.5 Z"/></g>
<g><path style="opacity:0.906" fill="#f9523f" d="M 506.5,537.5 C 489.168,567.161 469.501,595.161 447.5,621.5C 446.475,621.103 446.308,620.437 447,619.5C 468.635,592.901 488.302,564.901 506,535.5C 506.464,536.094 506.631,536.761 506.5,537.5 Z"/></g>
<g><path style="opacity:0.004" fill="#ee6c63" d="M 293.5,613.5 C 292.833,614.167 292.833,614.167 293.5,613.5 Z"/></g>
<g><path style="opacity:0.024" fill="#ef6961" d="M 301.5,622.5 C 300.833,623.167 300.833,623.167 301.5,622.5 Z"/></g>
<g><path style="opacity:0.004" fill="#f36762" d="M 303.5,626.5 C 304.833,627.167 304.833,627.167 303.5,626.5 Z"/></g>
<g><path style="opacity:0.008" fill="#f06a64" d="M 303.5,628.5 C 304.833,629.167 304.833,629.167 303.5,628.5 Z"/></g>
<g><path style="opacity:0.004" fill="#f26a63" d="M 307.5,629.5 C 306.833,630.167 306.833,630.167 307.5,629.5 Z"/></g>
<g><path style="opacity:0.004" fill="#ee6a64" d="M 313.5,635.5 C 312.833,636.167 312.833,636.167 313.5,635.5 Z"/></g>
<g><path style="opacity:1" fill="#fc5443" d="M 432.5,638.5 C 450.237,653.027 470.737,660.361 494,660.5C 521.386,659.325 544.886,649.325 564.5,630.5C 565.496,630.586 566.329,630.252 567,629.5C 556.087,641.087 542.921,649.92 527.5,656C 492.024,667.818 459.691,662.318 430.5,639.5C 431.036,637.855 431.703,637.522 432.5,638.5 Z"/></g>
<g><path style="opacity:0.004" fill="#ef6b63" d="M 330.5,652.5 C 330.631,653.239 330.464,653.906 330,654.5C 329.308,653.563 329.475,652.897 330.5,652.5 Z"/></g>
<g><path style="opacity:0.008" fill="#ed6a61" d="M 332.5,654.5 C 331.833,655.167 331.833,655.167 332.5,654.5 Z"/></g>
<g><path style="opacity:0.016" fill="#4abca9" d="M 654.5,654.5 C 655.833,655.167 655.833,655.167 654.5,654.5 Z"/></g>
<g><path style="opacity:0.004" fill="#57b7a8" d="M 653.5,655.5 C 653.833,655.5 654.167,655.5 654.5,655.5C 654.315,656.17 653.981,656.17 653.5,655.5 Z"/></g>
<g><path style="opacity:0.012" fill="#54b7a8" d="M 652.5,656.5 C 652.833,656.5 653.167,656.5 653.5,656.5C 653.315,657.17 652.981,657.17 652.5,656.5 Z"/></g>
<g><path style="opacity:0.004" fill="#ef6c63" d="M 336.5,658.5 C 335.833,659.167 335.833,659.167 336.5,658.5 Z"/></g>
<g><path style="opacity:0.004" fill="#70ad9f" d="M 643.5,665.5 C 644.833,666.167 644.833,666.167 643.5,665.5 Z"/></g>
<g><path style="opacity:0.008" fill="#ef6b64" d="M 344.5,667.5 C 345.833,668.167 345.833,668.167 344.5,667.5 Z"/></g>
<g><path style="opacity:0.004" fill="#77a69a" d="M 640.5,668.5 C 641.833,669.167 641.833,669.167 640.5,668.5 Z"/></g>
<g><path style="opacity:0.004" fill="#79a897" d="M 639.5,669.5 C 639.833,669.5 640.167,669.5 640.5,669.5C 640.315,670.17 639.981,670.17 639.5,669.5 Z"/></g>
<g><path style="opacity:0.008" fill="#f06a5f" d="M 349.5,670.5 C 348.833,671.167 348.833,671.167 349.5,670.5 Z"/></g>
<g><path style="opacity:0.008" fill="#f06d65" d="M 352.5,674.5 C 351.833,673.167 351.833,673.167 352.5,674.5 Z"/></g>
<g><path style="opacity:0.008" fill="#f36c65" d="M 352.5,674.5 C 353.833,675.167 353.833,675.167 352.5,674.5 Z"/></g>
<g><path style="opacity:0.004" fill="#ed6b63" d="M 352.5,676.5 C 353.833,677.167 353.833,677.167 352.5,676.5 Z"/></g>
<g><path style="opacity:0.016" fill="#ef6e65" d="M 369.5,686.5 C 368.833,687.167 368.833,687.167 369.5,686.5 Z"/></g>
<g><path style="opacity:0.004" fill="#ed6c64" d="M 378.5,693.5 C 377.833,694.167 377.833,694.167 378.5,693.5 Z"/></g>
<g><path style="opacity:0.008" fill="#e86962" d="M 380.5,694.5 C 379.833,695.167 379.833,695.167 380.5,694.5 Z"/></g>
<g><path style="opacity:0.004" fill="#ee6961" d="M 387.5,702.5 C 388.833,703.167 388.833,703.167 387.5,702.5 Z"/></g>
<g><path style="opacity:0.016" fill="#e97065" d="M 598.5,702.5 C 599.833,703.167 599.833,703.167 598.5,702.5 Z"/></g>
<g><path style="opacity:0.008" fill="#ef6c64" d="M 399.5,707.5 C 400.833,708.167 400.833,708.167 399.5,707.5 Z"/></g>
<g><path style="opacity:0.008" fill="#ea6e67" d="M 590.5,707.5 C 591.833,708.167 591.833,708.167 590.5,707.5 Z"/></g>
<g><path style="opacity:0.016" fill="#ef6963" d="M 402.5,708.5 C 401.833,709.167 401.833,709.167 402.5,708.5 Z"/></g>
<g><path style="opacity:0.004" fill="#f36c62" d="M 418.5,717.5 C 419.833,718.167 419.833,718.167 418.5,717.5 Z"/></g>
<g><path style="opacity:0.008" fill="#f06c60" d="M 432.5,722.5 C 432.5,722.833 432.5,723.167 432.5,723.5C 431.83,723.019 431.83,722.685 432.5,722.5 Z"/></g>
<g><path style="opacity:0.004" fill="#f06c65" d="M 432.5,723.5 C 433.833,724.167 433.833,724.167 432.5,723.5 Z"/></g>
<g><path style="opacity:0.004" fill="#ed6c63" d="M 549.5,727.5 C 549.897,726.475 550.563,726.308 551.5,727C 550.906,727.464 550.239,727.631 549.5,727.5 Z"/></g>
<g><path style="opacity:0.867" fill="#f95443" d="M 622.5,683.5 C 586.255,715.149 543.922,732.149 495.5,734.5C 489.183,733.809 482.85,733.476 476.5,733.5C 468.849,732.235 461.182,730.568 453.5,728.5C 516.32,739.711 571.987,724.544 620.5,683C 621.437,682.308 622.103,682.475 622.5,683.5 Z"/></g>
<g><path style="opacity:0.008" fill="#f16c63" d="M 455.5,730.5 C 456.833,731.167 456.833,731.167 455.5,730.5 Z"/></g>
<g><path style="opacity:0.008" fill="#ed6c66" d="M 533.5,731.5 C 533.897,730.475 534.563,730.308 535.5,731C 534.906,731.464 534.239,731.631 533.5,731.5 Z"/></g>
<g><path style="opacity:0.008" fill="#ee6961" d="M 461.5,731.5 C 462.833,732.167 462.833,732.167 461.5,731.5 Z"/></g>
<g><path style="opacity:0.016" fill="#f26964" d="M 464.5,733.5 C 465.251,732.427 466.251,732.26 467.5,733C 466.552,733.483 465.552,733.649 464.5,733.5 Z"/></g>
<g><path style="opacity:0.008" fill="#ea6c64" d="M 530.5,732.5 C 531.833,733.167 531.833,733.167 530.5,732.5 Z"/></g>
<g><path style="opacity:0.004" fill="#e76c65" d="M 534.5,732.5 C 535.833,733.167 535.833,733.167 534.5,732.5 Z"/></g>
<g><path style="opacity:0.012" fill="#f16d68" d="M 476.5,733.5 C 475.833,734.167 475.833,734.167 476.5,733.5 Z"/></g>
<g><path style="opacity:0.004" fill="#ef6d65" d="M 516.5,733.5 C 517.833,734.167 517.833,734.167 516.5,733.5 Z"/></g>
<g><path style="opacity:0.008" fill="#ee6e63" d="M 519.5,733.5 C 520.833,734.167 520.833,734.167 519.5,733.5 Z"/></g>
<g><path style="opacity:0.009" fill="#ee6c66" d="M 479.5,735.5 C 480.946,734.387 482.613,734.22 484.5,735C 482.866,735.494 481.199,735.66 479.5,735.5 Z"/></g>
<g><path style="opacity:0.014" fill="#ee6c66" d="M 507.5,735.5 C 507.897,734.475 508.563,734.308 509.5,735C 508.906,735.464 508.239,735.631 507.5,735.5 Z"/></g>
<g><path style="opacity:0.004" fill="#3f3432" d="M 467.5,1005.5 C 468.833,1006.17 468.833,1006.17 467.5,1005.5 Z"/></g>
</svg>
